# xmcd CD database file
#
# Track frame offsets:
#	150
#	10280
#	23032
#	37847
#	52382
#	66462
#	79407
#	92765
#	100295
#	112881
#	129286
#	143291
#	156248
#	169298
#	185753
#	196393
#
# Disc length: 2821 seconds
#
# Revision: 0
# Processed by: cddbd v1.5.2PL0 Copyright (c) Steve Scherf et al.
# Submitted via: CDex 1.92
#
DISCID=d90b0310
DTITLE=Elmore James - Big Box
DYEAR=2012
DGENRE=Blues
TTITLE0=Bobby's Rock
TTITLE1=I'm Worried
TTITLE2=Dumb Woman Blues
TTITLE3=Strange Angels
TTITLE4=My Bleeding Heart
TTITLE5=Make A Little Love
TTITLE6=My Kind of Woman
TTITLE7=Mean Mistreatin' Mama (Take 1 - Incomplete)
TTITLE8=Late Hours At Midnight
TTITLE9=You Know You're Wrong (Take 3 - Master)
TTITLE10=My Baby's Gone
TTITLE11=I Was A Fool
TTITLE12=Dust My Broom (Alternate Take)
TTITLE13=Twelve Year Old Boy
TTITLE14=Elmore's Contribution To Jazz
TTITLE15=Make My Dreams Come True (Alternate Take)
EXTD=YEAR: 2012
EXTT0=
EXTT1=
EXTT2=
EXTT3=
EXTT4=
EXTT5=
EXTT6=
EXTT7=
EXTT8=
EXTT9=
EXTT10=
EXTT11=
EXTT12=
EXTT13=
EXTT14=
EXTT15=
PLAYORDER=
